<?xml version="1.0" encoding="utf-8"?>
<!-- Generator: Adobe Illustrator 24.3.0, SVG Export Plug-In . SVG Version: 6.00 Build 0)  -->
<svg version="1.1" xmlns="http://www.w3.org/2000/svg" xmlns:xlink="http://www.w3.org/1999/xlink" x="0px" y="0px"
	 viewBox="0 0 500 500" style="enable-background:new 0 0 500 500;" xml:space="preserve">
<style type="text/css">
	.st0{fill:#26779B;}
	.st1{opacity:0.3;fill:#26779B;}
	.st2{opacity:0.2;fill:#26779B;}
	.st3{fill:#9ED7F0;}
	.st4{font-family:'Montserrat-ExtraBold';}
	.st5{font-size:50.6836px;}
	.st6{fill:#063B59;}
	.st7{opacity:0.25;fill:#26779B;}
	.st8{opacity:0.2;}
	.st9{fill:#014B7C;}
	.st10{fill:#D2EFF7;}
	.st11{opacity:0.25;}
	.st12{font-family:'Montserrat-Bold';}
	.st13{font-size:12.4568px;}
	.st14{fill:#FFFFFF;}
</style>
<g id="BACKGROUND">
</g>
<g id="OBJECTS">
	<g>
		<polygon class="st0" points="430.36,408.53 113.3,408.53 113.3,369.04 129.3,369.04 129.3,392.53 414.36,392.53 414.36,107.47 
			338.88,107.47 338.88,91.47 430.36,91.47 		"/>
		<path class="st1" d="M430.36,158.35c-5.81-6.52-10.89-12.27-16-15.27v213.76c4.85-3.19,10.49-7.14,16-11.59V158.35z"/>
		<polygon class="st2" points="500,163.91 430.36,91.47 430.36,408.53 113.3,408.53 204.77,500 500,500 		"/>
	</g>
	<g>
		<path class="st3" d="M142.08,234.55c77.77-51.52,173.3-139.28,181.08-81.63c7.78,57.65,55.73,14.43,83.93,10.76
			c96.93-12.62,79.14,106.07,11.59,150.38c-67.54,44.31-182.15,65.3-164.61,14.11c17.54-51.2-42.72,7.17-88.76-3.15
			C119.28,314.68,113.36,253.58,142.08,234.55z"/>
	</g>
	<text transform="matrix(1 0 0 1 59.781 120.6105)"><tspan x="0" y="0" class="st0 st4 st5">CONTACT</tspan><tspan x="0" y="44" class="st0 st4 st5">US</tspan></text>
	<g>
		<ellipse class="st6" cx="149.13" cy="336.25" rx="89.35" ry="20.73"/>
		<g>
			<g>
				<path class="st0" d="M128.87,215.43h-4.81c-3.36,0-6.09,2.73-6.09,6.09v19.05c0,3.36,2.73,6.09,6.09,6.09h4.81
					c3.36,0,6.09-2.73,6.09-6.09v-19.05C134.96,218.16,132.23,215.43,128.87,215.43z"/>
				<path class="st7" d="M127.62,215.43h-1.16v31.23h1.16c4.05,0,7.33-3.28,7.33-7.33v-16.56
					C134.96,218.72,131.67,215.43,127.62,215.43z"/>
			</g>
			<g>
				<path class="st0" d="M168.9,215.43h4.81c3.36,0,6.09,2.73,6.09,6.09v19.05c0,3.36-2.73,6.09-6.09,6.09h-4.81
					c-3.36,0-6.09-2.73-6.09-6.09v-19.05C162.81,218.16,165.53,215.43,168.9,215.43z"/>
				<path class="st7" d="M170.14,215.43h1.16v31.23h-1.16c-4.05,0-7.33-3.28-7.33-7.33v-16.56
					C162.81,218.72,166.09,215.43,170.14,215.43z"/>
			</g>
			<path class="st0" d="M207.1,245.68c-1.71-6.19-6.99-10.74-13.37-11.51c-10.44-1.25-27.33-2.88-44.85-2.88
				c-17.48,0-34.14,1.61-44.43,2.87c-6.33,0.77-11.58,5.27-13.32,11.4l-16.86,59.41c-0.59,2.1-0.72,4.3-0.38,6.45l3.29,20.44
				c0.79,4.93,4.73,8.74,9.68,9.38c12.84,1.65,38.43,4.51,62.02,4.51c23.59,0,49.18-2.86,62.02-4.51c4.95-0.64,8.88-4.45,9.68-9.38
				l3.3-20.49c0.34-2.12,0.22-4.29-0.35-6.35L207.1,245.68z"/>
			<g>
				<g class="st8">
					<path class="st0" d="M194.73,270.7l-20.12-20.12h-52.83l-5.82,50.79l21.36,21.36c3.79,0.2,7.64,0.32,11.56,0.32
						c17.19,0,37.51-3.3,55.36-7.15L194.73,270.7z"/>
				</g>
				<g>
					<path class="st9" d="M165.13,260.53c0.02,0.01,0.04,0.03,0.06,0.04c0.02,0.01,0.04,0.03,0.06,0.04
						c0.02,0.01,0.04,0.03,0.06,0.04c0.02,0.01,0.04,0.03,0.06,0.04c0.02,0.01,0.04,0.03,0.06,0.04c0.02,0.01,0.04,0.03,0.06,0.04
						c0.02,0.01,0.04,0.03,0.06,0.04c0.02,0.01,0.04,0.03,0.06,0.04c0.02,0.01,0.04,0.03,0.06,0.04c0.02,0.01,0.04,0.03,0.06,0.04
						c0.02,0.01,0.04,0.03,0.06,0.04c0.02,0.01,0.04,0.03,0.06,0.04c0.02,0.01,0.04,0.03,0.06,0.04c0.02,0.01,0.04,0.03,0.06,0.04
						c0.02,0.01,0.04,0.03,0.06,0.04c0.02,0.01,0.04,0.03,0.06,0.04c1.17,0.79,2.58,1.26,4.1,1.26c4.03,0,7.29-3.26,7.29-7.29
						c0-2.53-1.29-4.77-3.26-6.07c-0.02-0.01-0.04-0.03-0.06-0.04c-0.02-0.01-0.04-0.03-0.06-0.04c-0.02-0.01-0.04-0.03-0.06-0.04
						c-0.02-0.01-0.04-0.03-0.06-0.04c-0.02-0.01-0.04-0.03-0.06-0.04c-0.02-0.01-0.04-0.03-0.06-0.04
						c-0.02-0.01-0.04-0.03-0.06-0.04c-0.02-0.01-0.04-0.03-0.06-0.04c-0.02-0.01-0.04-0.03-0.06-0.04
						c-0.02-0.01-0.04-0.03-0.06-0.04c-0.02-0.01-0.04-0.03-0.06-0.04c-0.02-0.01-0.04-0.03-0.06-0.04
						c-0.02-0.01-0.04-0.03-0.06-0.04c-0.02-0.01-0.04-0.03-0.06-0.04c-0.02-0.01-0.04-0.03-0.06-0.04
						c-0.02-0.01-0.04-0.03-0.06-0.04c-1.17-0.79-2.58-1.26-4.1-1.26c-4.03,0-7.29,3.26-7.29,7.29
						C161.88,257,163.17,259.23,165.13,260.53z"/>
					<path class="st9" d="M167.33,284.03c0.02,0.01,0.04,0.03,0.06,0.04c0.02,0.01,0.04,0.03,0.06,0.04
						c0.02,0.01,0.04,0.03,0.06,0.04c0.02,0.01,0.04,0.03,0.06,0.04c0.02,0.01,0.04,0.03,0.06,0.04c0.02,0.01,0.04,0.03,0.06,0.04
						c0.02,0.01,0.04,0.03,0.06,0.04c0.02,0.01,0.04,0.03,0.06,0.04c0.02,0.01,0.04,0.03,0.06,0.04c0.02,0.01,0.04,0.03,0.06,0.04
						c0.02,0.01,0.04,0.03,0.06,0.04c0.02,0.01,0.04,0.03,0.06,0.04c0.02,0.01,0.04,0.03,0.06,0.04c0.02,0.01,0.04,0.03,0.06,0.04
						c0.02,0.01,0.04,0.03,0.06,0.04c1.17,0.79,2.58,1.26,4.1,1.26c4.03,0,7.29-3.26,7.29-7.29c0-2.53-1.29-4.77-3.26-6.07
						c-0.02-0.01-0.04-0.03-0.06-0.04c-0.02-0.01-0.04-0.03-0.06-0.04c-0.02-0.01-0.04-0.03-0.06-0.04
						c-0.02-0.01-0.04-0.03-0.06-0.04c-0.02-0.01-0.04-0.03-0.06-0.04c-0.02-0.01-0.04-0.03-0.06-0.04
						c-0.02-0.01-0.04-0.03-0.06-0.04c-0.02-0.01-0.04-0.03-0.06-0.04c-0.02-0.01-0.04-0.03-0.06-0.04
						c-0.02-0.01-0.04-0.03-0.06-0.04c-0.02-0.01-0.04-0.03-0.06-0.04c-0.02-0.01-0.04-0.03-0.06-0.04
						c-0.02-0.01-0.04-0.03-0.06-0.04c-0.02-0.01-0.04-0.03-0.06-0.04c-0.02-0.01-0.04-0.03-0.06-0.04
						c-0.02-0.01-0.04-0.03-0.06-0.04c-1.17-0.79-2.58-1.26-4.1-1.26c-4.03,0-7.29,3.26-7.29,7.29c0,2.53,1.29,4.77,3.26,6.07
						C167.29,284,167.31,284.01,167.33,284.03z"/>
					<path class="st9" d="M133.69,249.08c-0.02-0.01-0.04-0.03-0.06-0.04c-0.02-0.01-0.04-0.03-0.06-0.04
						c-0.02-0.01-0.04-0.03-0.06-0.04c-0.02-0.01-0.04-0.03-0.06-0.04c-0.02-0.01-0.04-0.03-0.06-0.04
						c-0.02-0.01-0.04-0.03-0.06-0.04c-0.02-0.01-0.04-0.03-0.06-0.04c-0.02-0.01-0.04-0.03-0.06-0.04
						c-0.02-0.01-0.04-0.03-0.06-0.04c-0.02-0.01-0.04-0.03-0.06-0.04c-0.02-0.01-0.04-0.03-0.06-0.04
						c-0.02-0.01-0.04-0.03-0.06-0.04c-0.02-0.01-0.04-0.03-0.06-0.04c-0.02-0.01-0.04-0.03-0.06-0.04
						c-0.02-0.01-0.04-0.03-0.06-0.04c-0.02-0.01-0.04-0.03-0.06-0.04c-1.17-0.79-2.58-1.26-4.1-1.26c-4.03,0-7.29,3.26-7.29,7.29
						c0,2.53,1.29,4.77,3.26,6.07c0.02,0.01,0.04,0.03,0.06,0.04c0.02,0.01,0.04,0.03,0.06,0.04c0.02,0.01,0.04,0.03,0.06,0.04
						c0.02,0.01,0.04,0.03,0.06,0.04c0.02,0.01,0.04,0.03,0.06,0.04c0.02,0.01,0.04,0.03,0.06,0.04c0.02,0.01,0.04,0.03,0.06,0.04
						c0.02,0.01,0.04,0.03,0.06,0.04c0.02,0.01,0.04,0.03,0.06,0.04c0.02,0.01,0.04,0.03,0.06,0.04c0.02,0.01,0.04,0.03,0.06,0.04
						c0.02,0.01,0.04,0.03,0.06,0.04c0.02,0.01,0.04,0.03,0.06,0.04c0.02,0.01,0.04,0.03,0.06,0.04c0.02,0.01,0.04,0.03,0.06,0.04
						c0.02,0.01,0.04,0.03,0.06,0.04c1.17,0.79,2.58,1.26,4.1,1.26c4.03,0,7.29-3.26,7.29-7.29
						C136.95,252.62,135.65,250.39,133.69,249.08z"/>
					<path class="st9" d="M153.98,249.08c-0.02-0.01-0.04-0.03-0.06-0.04c-0.02-0.01-0.04-0.03-0.06-0.04
						c-0.02-0.01-0.04-0.03-0.06-0.04c-0.02-0.01-0.04-0.03-0.06-0.04c-0.02-0.01-0.04-0.03-0.06-0.04
						c-0.02-0.01-0.04-0.03-0.06-0.04c-0.02-0.01-0.04-0.03-0.06-0.04c-0.02-0.01-0.04-0.03-0.06-0.04
						c-0.02-0.01-0.04-0.03-0.06-0.04c-0.02-0.01-0.04-0.03-0.06-0.04c-0.02-0.01-0.04-0.03-0.06-0.04
						c-0.02-0.01-0.04-0.03-0.06-0.04c-0.02-0.01-0.04-0.03-0.06-0.04c-0.02-0.01-0.04-0.03-0.06-0.04
						c-0.02-0.01-0.04-0.03-0.06-0.04c-0.02-0.01-0.04-0.03-0.06-0.04c-1.17-0.79-2.58-1.26-4.1-1.26c-4.03,0-7.29,3.26-7.29,7.29
						c0,2.53,1.29,4.77,3.26,6.07c0.02,0.01,0.04,0.03,0.06,0.04c0.02,0.01,0.04,0.03,0.06,0.04c0.02,0.01,0.04,0.03,0.06,0.04
						c0.02,0.01,0.04,0.03,0.06,0.04c0.02,0.01,0.04,0.03,0.06,0.04c0.02,0.01,0.04,0.03,0.06,0.04c0.02,0.01,0.04,0.03,0.06,0.04
						c0.02,0.01,0.04,0.03,0.06,0.04c0.02,0.01,0.04,0.03,0.06,0.04c0.02,0.01,0.04,0.03,0.06,0.04c0.02,0.01,0.04,0.03,0.06,0.04
						c0.02,0.01,0.04,0.03,0.06,0.04c0.02,0.01,0.04,0.03,0.06,0.04c0.02,0.01,0.04,0.03,0.06,0.04c0.02,0.01,0.04,0.03,0.06,0.04
						c0.02,0.01,0.04,0.03,0.06,0.04c1.17,0.79,2.58,1.26,4.1,1.26c4.03,0,7.29-3.26,7.29-7.29
						C157.24,252.62,155.94,250.39,153.98,249.08z"/>
					<path class="st9" d="M131.55,272.54c-0.02-0.01-0.04-0.03-0.06-0.04c-0.02-0.01-0.04-0.03-0.06-0.04
						c-0.02-0.01-0.04-0.03-0.06-0.04c-0.02-0.01-0.04-0.03-0.06-0.04c-0.02-0.01-0.04-0.03-0.06-0.04
						c-0.02-0.01-0.04-0.03-0.06-0.04c-0.02-0.01-0.04-0.03-0.06-0.04c-0.02-0.01-0.04-0.03-0.06-0.04
						c-0.02-0.01-0.04-0.03-0.06-0.04c-0.02-0.01-0.04-0.03-0.06-0.04c-0.02-0.01-0.04-0.03-0.06-0.04
						c-0.02-0.01-0.04-0.03-0.06-0.04c-0.02-0.01-0.04-0.03-0.06-0.04c-0.02-0.01-0.04-0.03-0.06-0.04
						c-0.02-0.01-0.04-0.03-0.06-0.04c-0.02-0.01-0.04-0.03-0.06-0.04c-1.17-0.79-2.58-1.26-4.1-1.26c-4.03,0-7.29,3.26-7.29,7.29
						c0,2.53,1.29,4.77,3.26,6.07c0.02,0.01,0.04,0.03,0.06,0.04c0.02,0.01,0.04,0.03,0.06,0.04c0.02,0.01,0.04,0.03,0.06,0.04
						c0.02,0.01,0.04,0.03,0.06,0.04c0.02,0.01,0.04,0.03,0.06,0.04c0.02,0.01,0.04,0.03,0.06,0.04c0.02,0.01,0.04,0.03,0.06,0.04
						c0.02,0.01,0.04,0.03,0.06,0.04c0.02,0.01,0.04,0.03,0.06,0.04c0.02,0.01,0.04,0.03,0.06,0.04c0.02,0.01,0.04,0.03,0.06,0.04
						c0.02,0.01,0.04,0.03,0.06,0.04c0.02,0.01,0.04,0.03,0.06,0.04c0.02,0.01,0.04,0.03,0.06,0.04c0.02,0.01,0.04,0.03,0.06,0.04
						c0.02,0.01,0.04,0.03,0.06,0.04c1.17,0.79,2.58,1.26,4.1,1.26c4.03,0,7.29-3.26,7.29-7.29
						C134.81,276.07,133.52,273.84,131.55,272.54z"/>
					<path class="st9" d="M153.98,272.54c-0.02-0.01-0.04-0.03-0.06-0.04c-0.02-0.01-0.04-0.03-0.06-0.04
						c-0.02-0.01-0.04-0.03-0.06-0.04c-0.02-0.01-0.04-0.03-0.06-0.04c-0.02-0.01-0.04-0.03-0.06-0.04
						c-0.02-0.01-0.04-0.03-0.06-0.04c-0.02-0.01-0.04-0.03-0.06-0.04c-0.02-0.01-0.04-0.03-0.06-0.04
						c-0.02-0.01-0.04-0.03-0.06-0.04c-0.02-0.01-0.04-0.03-0.06-0.04c-0.02-0.01-0.04-0.03-0.06-0.04
						c-0.02-0.01-0.04-0.03-0.06-0.04c-0.02-0.01-0.04-0.03-0.06-0.04c-0.02-0.01-0.04-0.03-0.06-0.04
						c-0.02-0.01-0.04-0.03-0.06-0.04c-0.02-0.01-0.04-0.03-0.06-0.04c-1.17-0.79-2.58-1.26-4.1-1.26c-4.03,0-7.29,3.26-7.29,7.29
						c0,2.53,1.29,4.77,3.26,6.07c0.02,0.01,0.04,0.03,0.06,0.04c0.02,0.01,0.04,0.03,0.06,0.04c0.02,0.01,0.04,0.03,0.06,0.04
						c0.02,0.01,0.04,0.03,0.06,0.04c0.02,0.01,0.04,0.03,0.06,0.04c0.02,0.01,0.04,0.03,0.06,0.04c0.02,0.01,0.04,0.03,0.06,0.04
						c0.02,0.01,0.04,0.03,0.06,0.04c0.02,0.01,0.04,0.03,0.06,0.04c0.02,0.01,0.04,0.03,0.06,0.04c0.02,0.01,0.04,0.03,0.06,0.04
						c0.02,0.01,0.04,0.03,0.06,0.04c0.02,0.01,0.04,0.03,0.06,0.04c0.02,0.01,0.04,0.03,0.06,0.04c0.02,0.01,0.04,0.03,0.06,0.04
						c0.02,0.01,0.04,0.03,0.06,0.04c1.17,0.79,2.58,1.26,4.1,1.26c4.03,0,7.29-3.26,7.29-7.29
						C157.24,276.07,155.94,273.84,153.98,272.54z"/>
					<path class="st9" d="M128.35,295.99c-0.02-0.01-0.04-0.03-0.06-0.04c-0.02-0.01-0.04-0.03-0.06-0.04
						c-0.02-0.01-0.04-0.03-0.06-0.04c-0.02-0.01-0.04-0.03-0.06-0.04c-0.02-0.01-0.04-0.03-0.06-0.04
						c-0.02-0.01-0.04-0.03-0.06-0.04c-0.02-0.01-0.04-0.03-0.06-0.04c-0.02-0.01-0.04-0.03-0.06-0.04
						c-0.02-0.01-0.04-0.03-0.06-0.04c-0.02-0.01-0.04-0.03-0.06-0.04c-0.02-0.01-0.04-0.03-0.06-0.04
						c-0.02-0.01-0.04-0.03-0.06-0.04c-0.02-0.01-0.04-0.03-0.06-0.04c-0.02-0.01-0.04-0.03-0.06-0.04
						c-0.02-0.01-0.04-0.03-0.06-0.04c-0.02-0.01-0.04-0.03-0.06-0.04c-1.17-0.79-2.58-1.26-4.1-1.26c-4.03,0-7.29,3.26-7.29,7.29
						c0,2.53,1.29,4.77,3.26,6.07c0.02,0.01,0.04,0.03,0.06,0.04c0.02,0.01,0.04,0.03,0.06,0.04c0.02,0.01,0.04,0.03,0.06,0.04
						c0.02,0.01,0.04,0.03,0.06,0.04c0.02,0.01,0.04,0.03,0.06,0.04c0.02,0.01,0.04,0.03,0.06,0.04c0.02,0.01,0.04,0.03,0.06,0.04
						c0.02,0.01,0.04,0.03,0.06,0.04c0.02,0.01,0.04,0.03,0.06,0.04c0.02,0.01,0.04,0.03,0.06,0.04c0.02,0.01,0.04,0.03,0.06,0.04
						c0.02,0.01,0.04,0.03,0.06,0.04c0.02,0.01,0.04,0.03,0.06,0.04c0.02,0.01,0.04,0.03,0.06,0.04c0.02,0.01,0.04,0.03,0.06,0.04
						c0.02,0.01,0.04,0.03,0.06,0.04c1.17,0.79,2.58,1.26,4.1,1.26c4.03,0,7.29-3.26,7.29-7.29
						C131.61,299.53,130.31,297.3,128.35,295.99z"/>
					<path class="st9" d="M179.61,295.99c-0.02-0.01-0.04-0.03-0.06-0.04c-0.02-0.01-0.04-0.03-0.06-0.04
						c-0.02-0.01-0.04-0.03-0.06-0.04c-0.02-0.01-0.04-0.03-0.06-0.04c-0.02-0.01-0.04-0.03-0.06-0.04
						c-0.02-0.01-0.04-0.03-0.06-0.04c-0.02-0.01-0.04-0.03-0.06-0.04c-0.02-0.01-0.04-0.03-0.06-0.04
						c-0.02-0.01-0.04-0.03-0.06-0.04c-0.02-0.01-0.04-0.03-0.06-0.04c-0.02-0.01-0.04-0.03-0.06-0.04
						c-0.02-0.01-0.04-0.03-0.06-0.04c-0.02-0.01-0.04-0.03-0.06-0.04c-0.02-0.01-0.04-0.03-0.06-0.04
						c-0.02-0.01-0.04-0.03-0.06-0.04c-0.02-0.01-0.04-0.03-0.06-0.04c-1.17-0.79-2.58-1.26-4.1-1.26c-4.03,0-7.29,3.26-7.29,7.29
						c0,2.53,1.29,4.77,3.26,6.07c0.02,0.01,0.04,0.03,0.06,0.04c0.02,0.01,0.04,0.03,0.06,0.04c0.02,0.01,0.04,0.03,0.06,0.04
						c0.02,0.01,0.04,0.03,0.06,0.04c0.02,0.01,0.04,0.03,0.06,0.04c0.02,0.01,0.04,0.03,0.06,0.04c0.02,0.01,0.04,0.03,0.06,0.04
						c0.02,0.01,0.04,0.03,0.06,0.04c0.02,0.01,0.04,0.03,0.06,0.04c0.02,0.01,0.04,0.03,0.06,0.04c0.02,0.01,0.04,0.03,0.06,0.04
						c0.02,0.01,0.04,0.03,0.06,0.04c0.02,0.01,0.04,0.03,0.06,0.04c0.02,0.01,0.04,0.03,0.06,0.04c0.02,0.01,0.04,0.03,0.06,0.04
						c0.02,0.01,0.04,0.03,0.06,0.04c1.17,0.79,2.58,1.26,4.1,1.26c4.03,0,7.29-3.26,7.29-7.29
						C182.86,299.53,181.57,297.3,179.61,295.99z"/>
					<path class="st9" d="M153.98,295.99c-0.02-0.01-0.04-0.03-0.06-0.04c-0.02-0.01-0.04-0.03-0.06-0.04
						c-0.02-0.01-0.04-0.03-0.06-0.04c-0.02-0.01-0.04-0.03-0.06-0.04c-0.02-0.01-0.04-0.03-0.06-0.04
						c-0.02-0.01-0.04-0.03-0.06-0.04c-0.02-0.01-0.04-0.03-0.06-0.04c-0.02-0.01-0.04-0.03-0.06-0.04
						c-0.02-0.01-0.04-0.03-0.06-0.04c-0.02-0.01-0.04-0.03-0.06-0.04c-0.02-0.01-0.04-0.03-0.06-0.04
						c-0.02-0.01-0.04-0.03-0.06-0.04c-0.02-0.01-0.04-0.03-0.06-0.04c-0.02-0.01-0.04-0.03-0.06-0.04
						c-0.02-0.01-0.04-0.03-0.06-0.04c-0.02-0.01-0.04-0.03-0.06-0.04c-1.17-0.79-2.58-1.26-4.1-1.26c-4.03,0-7.29,3.26-7.29,7.29
						c0,2.53,1.29,4.77,3.26,6.07c0.02,0.01,0.04,0.03,0.06,0.04c0.02,0.01,0.04,0.03,0.06,0.04c0.02,0.01,0.04,0.03,0.06,0.04
						c0.02,0.01,0.04,0.03,0.06,0.04c0.02,0.01,0.04,0.03,0.06,0.04c0.02,0.01,0.04,0.03,0.06,0.04c0.02,0.01,0.04,0.03,0.06,0.04
						c0.02,0.01,0.04,0.03,0.06,0.04c0.02,0.01,0.04,0.03,0.06,0.04c0.02,0.01,0.04,0.03,0.06,0.04c0.02,0.01,0.04,0.03,0.06,0.04
						c0.02,0.01,0.04,0.03,0.06,0.04c0.02,0.01,0.04,0.03,0.06,0.04c0.02,0.01,0.04,0.03,0.06,0.04c0.02,0.01,0.04,0.03,0.06,0.04
						c0.02,0.01,0.04,0.03,0.06,0.04c1.17,0.79,2.58,1.26,4.1,1.26c4.03,0,7.29-3.26,7.29-7.29
						C157.24,299.53,155.94,297.3,153.98,295.99z"/>
				</g>
				<circle class="st10" cx="128.59" cy="254.46" r="7.29"/>
				<circle class="st10" cx="169.17" cy="254.46" r="7.29"/>
				<circle class="st10" cx="148.88" cy="254.46" r="7.29"/>
				<circle class="st10" cx="126.45" cy="277.91" r="7.29"/>
				<circle class="st10" cx="171.3" cy="277.91" r="7.29"/>
				<circle class="st10" cx="148.88" cy="277.91" r="7.29"/>
				
					<ellipse transform="matrix(0.7071 -0.7071 0.7071 0.7071 -176.9996 175.4196)" class="st10" cx="123.25" cy="301.37" rx="7.29" ry="7.29"/>
				
					<ellipse transform="matrix(0.9871 -0.1598 0.1598 0.9871 -45.9212 31.7628)" class="st10" cx="174.5" cy="301.37" rx="7.29" ry="7.29"/>
				
					<ellipse transform="matrix(0.9734 -0.229 0.229 0.9734 -65.0666 42.1094)" class="st10" cx="148.88" cy="301.37" rx="7.29" ry="7.29"/>
			</g>
			<path class="st9" d="M148.88,323.04c-28.65,0-53.81-5.65-75.08-12.48c0.03,0.29,0.05,0.58,0.09,0.87l3.29,20.44
				c0.79,4.93,4.73,8.74,9.68,9.38c12.84,1.65,38.43,4.51,62.02,4.51s49.18-2.86,62.02-4.51c4.95-0.64,8.88-4.45,9.68-9.38
				l3.3-20.49c0.01-0.04,0.01-0.07,0.01-0.11C202.97,316.61,172.86,323.04,148.88,323.04z"/>
			<path class="st7" d="M93.47,316.14l17.39-82.71c-2.34,0.25-4.49,0.49-6.42,0.73c-6.33,0.77-11.58,5.27-13.32,11.4l-16.86,59.41
				c-0.59,2.1-0.72,4.3-0.38,6.45l3.29,20.44c0.79,4.93,4.73,8.74,9.68,9.38c3.6,0.46,8.21,1.02,13.49,1.59L93.47,316.14z"/>
			<path class="st7" d="M204.28,316.14l-17.39-82.71c2.34,0.25,4.49,0.49,6.42,0.73c6.33,0.77,11.58,5.27,13.32,11.4l16.86,59.41
				c0.59,2.1,0.72,4.3,0.38,6.45l-3.29,20.44c-0.79,4.93-4.73,8.74-9.68,9.38c-3.6,0.46-8.21,1.02-13.49,1.59L204.28,316.14z"/>
			<g>
				<path class="st0" d="M255.2,209.93c-11.34-5.39-22.98-9.87-34.83-13.44c-46.44-13.98-96.03-13.98-142.46,0
					c-11.85,3.57-23.5,8.05-34.83,13.44c-7.29,3.46-10.49,11.23-7.33,16.81c0.67,1.22,1.34,2.45,2.02,3.67
					c3.67,3.92,7.27,7.89,10.79,11.92c2.3,2.6,6.22,3.27,9.5,1.69c6.58-3.17,13.29-5.99,20.1-8.43c3.39-1.22,5.61-4.47,5.35-7.93
					c-0.43-5.33-0.77-10.67-1.02-16.02c43.46-13.09,89.88-13.09,133.34,0c-0.26,5.36-0.6,10.7-1.02,16.02
					c-0.26,3.46,1.96,6.7,5.35,7.93c6.81,2.45,13.52,5.26,20.1,8.43c3.28,1.58,7.2,0.92,9.5-1.69c3.52-4.02,7.12-8,10.79-11.92
					c0.67-1.22,1.34-2.45,2.02-3.67C265.69,221.16,262.49,213.39,255.2,209.93z"/>
				<g class="st11">
					<path class="st0" d="M75.23,205.73c48.17-14.51,99.62-14.51,147.79,0c12.3,3.7,24.38,8.35,36.14,13.94
						c1.75,0.83,3.27,1.91,4.53,3.14c0.37-4.86-2.81-10.18-8.5-12.88c-11.34-5.39-22.98-9.87-34.83-13.44
						c-46.44-13.98-96.03-13.98-142.46,0c-11.85,3.57-23.5,8.05-34.83,13.44c-5.69,2.7-8.87,8.02-8.5,12.88
						c1.27-1.23,2.78-2.31,4.53-3.14C50.86,214.08,62.94,209.43,75.23,205.73z"/>
				</g>
				<g>
					<path class="st9" d="M44.18,237.44c1.46,1.62,2.92,3.25,4.35,4.89c2.3,2.6,6.22,3.27,9.5,1.69c6.58-3.17,13.29-5.99,20.1-8.43
						c3.39-1.22,5.61-4.47,5.35-7.93c-0.12-1.55-0.23-3.1-0.34-4.65c-1.75,0.49-3.5,0.99-5.25,1.51
						C66.43,227.97,55.16,232.28,44.18,237.44z"/>
					<path class="st9" d="M220.13,235.58c6.81,2.45,13.52,5.26,20.1,8.43c3.28,1.58,7.2,0.92,9.5-1.69
						c1.44-1.64,2.89-3.27,4.35-4.89c-10.99-5.16-22.25-9.47-33.72-12.92c-1.74-0.53-3.5-1.02-5.25-1.51
						c-0.11,1.55-0.21,3.1-0.34,4.65C214.52,231.12,216.74,234.36,220.13,235.58z"/>
				</g>
			</g>
		</g>
	</g>
	<g>
		<text transform="matrix(1 0 0 1 324.8779 258.8359)" class="st0 st12 st13">phone number</text>
		<text transform="matrix(1 0 0 1 323.5908 210.9639)" class="st0 st12 st13">e-mail adDress</text>
		<text transform="matrix(1 0 0 1 324.1933 305.2441)" class="st0 st12 st13">location</text>
		<g>
			<circle class="st0" cx="295.79" cy="207.32" r="17.92"/>
			<path class="st14" d="M299.27,210.64c-1.83,1.92-4.87,1.98-6.79,0.16c-0.96-0.9-1.49-2.18-1.49-3.49c0-2.65,2.16-4.81,4.81-4.81
				c2.65,0,4.81,2.16,4.81,4.81v1.43c0,0.8,0.65,1.43,1.43,1.43c0.8,0,1.43-0.65,1.43-1.43v-1.43c0-4.24-3.45-7.69-7.69-7.69
				c-4.24,0-7.69,3.45-7.69,7.69c0,4.24,3.45,7.69,7.69,7.69c1,0,2-0.2,2.94-0.59c0.47-0.24,1.06-0.06,1.3,0.43
				c0.24,0.49,0.06,1.06-0.43,1.3c-0.04,0.02-0.08,0.04-0.14,0.06c-4.91,2.04-10.54-0.29-12.56-5.2c-2.02-4.91,0.29-10.54,5.2-12.56
				c4.91-2.02,10.54,0.29,12.56,5.2c0.53,1.16,0.79,2.41,0.79,3.67v1.43c0,1.86-1.49,3.38-3.36,3.38
				C300.96,212.14,299.9,211.57,299.27,210.64z M295.82,210.19c1.59,0,2.89-1.3,2.89-2.89c0-1.59-1.3-2.89-2.89-2.89
				c-1.59,0-2.89,1.3-2.89,2.89C292.93,208.9,294.23,210.19,295.82,210.19z"/>
			<path class="st2" d="M295.79,189.4c-9.9,0-17.92,8.03-17.92,17.92c0,4.98,2.03,9.48,5.31,12.73l25.34-25.34
				C305.28,191.43,300.78,189.4,295.79,189.4z"/>
		</g>
		<g>
			<circle class="st0" cx="295.79" cy="255.19" r="17.92"/>
			<path class="st14" d="M304.48,260.06c-1.26-0.37-4.89-2.15-5.31-1.78c-0.41,0.37-2.18,1.94-2.18,1.94
				c-1.16-0.26-3.19-1.91-4.25-3.1c-1.06-1.19-2.46-3.39-2.59-4.57c0,0,1.76-1.57,2.18-1.94c0.41-0.37-0.94-4.18-1.16-5.47
				c-0.22-1.29-2.3-1.12-3.19-0.87c-0.9,0.24-4.75,6.83,2.46,14.92c7.2,8.08,14.19,5.02,14.54,4.15
				C305.33,262.47,305.74,260.43,304.48,260.06z"/>
			<path class="st2" d="M295.79,237.27c-9.9,0-17.92,8.03-17.92,17.92c0,4.84,1.93,9.23,5.05,12.46l25.33-25.33
				C305.03,239.2,300.64,237.27,295.79,237.27z"/>
		</g>
		<g>
			
				<ellipse transform="matrix(0.7071 -0.7071 0.7071 0.7071 -126.6284 297.4956)" class="st0" cx="295.79" cy="301.6" rx="17.92" ry="17.92"/>
			<path class="st14" d="M295.84,289.44c-4.69,0-8.48,3.79-8.48,8.48c0,4.59,3.79,10.77,7.08,15.16c0.7,0.9,2,0.9,2.69,0
				c3.29-4.39,7.08-10.57,7.08-15.16C304.22,293.23,300.43,289.44,295.84,289.44z M295.79,303.08c-2.77,0-5.01-2.24-5.01-5.01
				c0-2.77,2.24-5.01,5.01-5.01c2.77,0,5.01,2.24,5.01,5.01C300.8,300.84,298.56,303.08,295.79,303.08z"/>
			<path class="st2" d="M295.79,283.68c-9.9,0-17.92,8.03-17.92,17.92c0,4.84,1.93,9.22,5.04,12.45l25.33-25.33
				C305.02,285.6,300.63,283.68,295.79,283.68z"/>
		</g>
	</g>
</g>
</svg>
