<svg xlink="http://www.w3.org/1999/xlink" viewBox="0 0 5000 5000" xmlns="http://www.w3.org/2000/svg" style="transform: scale(1);"><defs><filter id="goo"><feGaussianBlur in="SourceGraphic" stdDeviation="19.7" result="blur"></feGaussianBlur><feColorMatrix in="blur" type="matrix" values="1 0 0 0 0 0 1 0 0 0 0 0 1 0 0 0 0 0 19 -9" result="good"></feColorMatrix><feComposite in="SourceGraphic" in2="goo" operator="atop"></feComposite></filter><path d="M385,187C408,240 400,299 371,338C342,377 298,399 241,399C183,393 135,358 115,313C92,260 100,201 129,162C158,123 202,101 259,101C317,107 365,142 385,187z" id="P0"></path><path d="M409,313L118,359L229,80L409,313z" id="P1"></path><path d="M386,304L196,386L114,196L304,114L386,304z" id="P2"></path><path d="M325,340L187,349L137,221L243,133L359,207L325,340z" id="P3"></path><path d="M149,112L323,95L420,229L351,388L177,405L80,271L149,112z" id="P4"></path><path d="M177,338C144,308 130,265 138,229C145,192 168,163 208,144C250,129 294,138 323,162C356,192 370,235 362,271C355,308 332,337 292,356C250,371 206,362 177,338z" id="P5"></path><path d="M312,440L54,213L387,104L312,440z" id="P6"></path><path d="M107,287L213,107L393,213L287,393L107,287z" id="P7"></path><path d="M89,339L116,124L328,84L433,273L284,431L89,339z" id="P8"></path><path d="M378,226L333,350L210,374L122,274L167,150L290,126L378,226z" id="P9"></path><path d="M202,309C179,289 170,260 175,236C180,212 195,192 222,179C250,169 280,175 298,191C321,211 330,240 325,264C320,288 305,308 278,321C250,331 220,325 202,309z" id="P10"></path><path d="M101,250L322,119L322,381L101,250z" id="P11"></path><path d="M320,346L154,320L180,154L346,180L320,346z" id="P12"></path><path d="M332,101L417,282L271,419L96,322L134,126L332,101z" id="P13"></path><path d="M432,203L379,387L203,432L68,297L121,113L297,68L432,203z" id="P14"></path><path d="M168,260C165,228 179,198 201,183C223,167 250,163 281,173C310,186 330,213 332,240C335,272 321,302 299,317C277,333 250,337 219,327C190,314 170,287 168,260z" id="P15"></path><path d="M438,298L117,391L202,62L438,298z" id="P16"></path><path d="M298,149L351,298L202,351L149,202L298,149z" id="P17"></path><path d="M262,435L78,318L132,107L349,94L429,296L262,435z" id="P18"></path><path d="M218,374L126,282L157,162L282,126L374,218L343,338L218,374z" id="P19"></path></defs><rect id="RECT" width="5000" height="5000" fill="#FFFFFF"></rect><g id="group" fill="#0C34F0" filter="url(#goo)" opacity="0.83"><use x="-877" y="-645" href="#P3"></use><use x="-878" y="-150" href="#P12"></use><use x="-1283" y="502" href="#P5"></use><use x="-1030" y="805" href="#P8"></use><use x="-1129" y="1680" href="#P0"></use><use x="-1066" y="2330" href="#P2"></use><use x="-1277" y="3494" href="#P1"></use><use x="-836" y="4254" href="#P16"></use><use x="-833" y="4648" href="#P13"></use><use x="-654" y="5597" href="#P0"></use><use x="-474" y="5953" href="#P0"></use><use x="-56" y="-983" href="#P17"></use><use x="-175" y="-436" href="#P3"></use><use x="-660" y="366" href="#P11"></use><use x="-832" y="1073" href="#P11"></use><use x="-890" y="2118" href="#P14"></use><use x="-918" y="2871" href="#P6"></use><use x="-858" y="3727" href="#P12"></use><use x="-721" y="4471" href="#P0"></use><use x="-385" y="5023" href="#P18"></use><use x="72" y="5750" href="#P19"></use><use x="129" y="6253" href="#P17"></use><use x="707" y="-1152" href="#P10"></use><use x="727" y="-589" href="#P8"></use><use x="73" y="117" href="#P16"></use><use x="571" y="551" href="#P12"></use><use x="-103" y="1441" href="#P13"></use><use x="346" y="2586" href="#P13"></use><use x="402" y="3251" href="#P1"></use><use x="532" y="4833" href="#P8"></use><use x="506" y="4870" href="#P16"></use><use x="245" y="5998" href="#P9"></use><use x="407" y="6229" href="#P15"></use><use x="1211" y="-1095" href="#P2"></use><use x="1112" y="-838" href="#P8"></use><use x="861" y="-152" href="#P13"></use><use x="707" y="528" href="#P17"></use><use x="576" y="1850" href="#P1"></use><use x="1432" y="2468" href="#P14"></use><use x="1468" y="3499" href="#P3"></use><use x="1413" y="4473" href="#P16"></use><use x="1553" y="5582" href="#P17"></use><use x="871" y="5766" href="#P16"></use><use x="1579" y="6592" href="#P5"></use><use x="2274" y="-1381" href="#P0"></use><use x="2360" y="-858" href="#P12"></use><use x="1725" y="86" href="#P12"></use><use x="1616" y="959" href="#P4"></use><use x="1710" y="1709" href="#P4"></use><use x="2201" y="2944" href="#P12"></use><use x="2331" y="3622" href="#P11"></use><use x="1731" y="4751" href="#P1"></use><use x="2001" y="5229" href="#P19"></use><use x="2462" y="6065" href="#P19"></use><use x="2111" y="6474" href="#P5"></use><use x="3191" y="-1356" href="#P11"></use><use x="2802" y="-411" href="#P2"></use><use x="2964" y="10" href="#P6"></use><use x="3483" y="1114" href="#P13"></use><use x="3021" y="1757" href="#P19"></use><use x="2952" y="2518" href="#P10"></use><use x="2926" y="4019" href="#P16"></use><use x="2968" y="4889" href="#P18"></use><use x="2577" y="5499" href="#P17"></use><use x="2551" y="5666" href="#P4"></use><use x="2837" y="6531" href="#P0"></use><use x="3818" y="-970" href="#P14"></use><use x="4227" y="-287" href="#P17"></use><use x="3851" y="-18" href="#P7"></use><use x="4354" y="867" href="#P4"></use><use x="4324" y="1363" href="#P10"></use><use x="3622" y="2861" href="#P7"></use><use x="4199" y="3666" href="#P8"></use><use x="4311" y="4132" href="#P18"></use><use x="3715" y="5543" href="#P19"></use><use x="4012" y="5608" href="#P0"></use><use x="3620" y="6560" href="#P10"></use><use x="4095" y="-1330" href="#P13"></use><use x="4391" y="-560" href="#P10"></use><use x="4426" y="16" href="#P10"></use><use x="4413" y="1218" href="#P7"></use><use x="4591" y="1980" href="#P16"></use><use x="5109" y="3015" href="#P17"></use><use x="5109" y="3249" href="#P4"></use><use x="4556" y="4269" href="#P19"></use><use x="4317" y="5282" href="#P19"></use><use x="4228" y="5600" href="#P14"></use><use x="4157" y="6424" href="#P7"></use><use x="5314" y="-991" href="#P2"></use><use x="5371" y="-513" href="#P14"></use><use x="5398" y="405" href="#P9"></use><use x="5524" y="1001" href="#P17"></use><use x="5457" y="1515" href="#P2"></use><use x="5495" y="3054" href="#P17"></use><use x="5379" y="3659" href="#P15"></use><use x="5600" y="4496" href="#P16"></use><use x="5325" y="4856" href="#P3"></use><use x="5502" y="5350" href="#P19"></use><use x="4905" y="6292" href="#P16"></use><use x="5447" y="-928" href="#P6"></use><use x="5815" y="-47" href="#P16"></use><use x="5944" y="403" href="#P10"></use><use x="6278" y="1265" href="#P17"></use><use x="6101" y="1716" href="#P17"></use><use x="6177" y="2523" href="#P18"></use><use x="5937" y="3375" href="#P10"></use><use x="5992" y="3948" href="#P3"></use><use x="5692" y="4961" href="#P18"></use><use x="5906" y="5438" href="#P0"></use><use x="5488" y="6123" href="#P11"></use></g></svg>