<svg xmlns="http://www.w3.org/2000/svg" version="1.1" xmlns:xlink="http://www.w3.org/1999/xlink" xmlns:svgjs="http://svgjs.com/svgjs" width="1440" height="560" preserveAspectRatio="none" viewBox="0 0 1440 560"><g mask="url(&quot;#SvgjsMask3490&quot;)" fill="none"><rect width="1440" height="560" x="0" y="0" fill="url(#SvgjsLinearGradient3491)"></rect><path d="M19 30L397 408" stroke-width="10" stroke="url(#SvgjsLinearGradient3492)" stroke-linecap="round" class="TopLeft"></path><path d="M713 32L925 244" stroke-width="10" stroke="url(#SvgjsLinearGradient3493)" stroke-linecap="round" class="BottomRight"></path><path d="M1283 35L1427 179" stroke-width="10" stroke="url(#SvgjsLinearGradient3494)" stroke-linecap="round" class="BottomRight"></path><path d="M572 348L319 95" stroke-width="6" stroke="url(#SvgjsLinearGradient3492)" stroke-linecap="round" class="TopLeft"></path><path d="M781 445L441 105" stroke-width="8" stroke="url(#SvgjsLinearGradient3494)" stroke-linecap="round" class="BottomRight"></path><path d="M1325 274L1551 500" stroke-width="6" stroke="url(#SvgjsLinearGradient3493)" stroke-linecap="round" class="BottomRight"></path><path d="M1167 22L765 -380" stroke-width="6" stroke="url(#SvgjsLinearGradient3495)" stroke-linecap="round" class="TopLeft"></path><path d="M657 332L514 189" stroke-width="6" stroke="url(#SvgjsLinearGradient3493)" stroke-linecap="round" class="BottomRight"></path><path d="M315 482L656 823" stroke-width="10" stroke="url(#SvgjsLinearGradient3495)" stroke-linecap="round" class="TopLeft"></path><path d="M983 313L580 -90" stroke-width="8" stroke="url(#SvgjsLinearGradient3492)" stroke-linecap="round" class="TopLeft"></path><path d="M1414 425L1146 157" stroke-width="10" stroke="url(#SvgjsLinearGradient3493)" stroke-linecap="round" class="BottomRight"></path><path d="M519 123L109 -287" stroke-width="8" stroke="url(#SvgjsLinearGradient3493)" stroke-linecap="round" class="BottomRight"></path><path d="M1143 236L878 -29" stroke-width="6" stroke="url(#SvgjsLinearGradient3493)" stroke-linecap="round" class="BottomRight"></path><path d="M1240 82L1490 332" stroke-width="8" stroke="url(#SvgjsLinearGradient3494)" stroke-linecap="round" class="BottomRight"></path><path d="M812 405L523 116" stroke-width="8" stroke="url(#SvgjsLinearGradient3492)" stroke-linecap="round" class="TopLeft"></path><path d="M125 320L387 582" stroke-width="6" stroke="url(#SvgjsLinearGradient3495)" stroke-linecap="round" class="TopLeft"></path><path d="M176 222L530 576" stroke-width="6" stroke="url(#SvgjsLinearGradient3495)" stroke-linecap="round" class="TopLeft"></path><path d="M1047 322L1252 527" stroke-width="6" stroke="url(#SvgjsLinearGradient3495)" stroke-linecap="round" class="TopLeft"></path><path d="M1351 113L1583 345" stroke-width="10" stroke="url(#SvgjsLinearGradient3493)" stroke-linecap="round" class="BottomRight"></path><path d="M568 238L236 -94" stroke-width="8" stroke="url(#SvgjsLinearGradient3495)" stroke-linecap="round" class="TopLeft"></path><path d="M170 534L494 858" stroke-width="10" stroke="url(#SvgjsLinearGradient3494)" stroke-linecap="round" class="BottomRight"></path><path d="M694 28L492 -174" stroke-width="10" stroke="url(#SvgjsLinearGradient3492)" stroke-linecap="round" class="TopLeft"></path><path d="M644 398L828 582" stroke-width="10" stroke="url(#SvgjsLinearGradient3493)" stroke-linecap="round" class="BottomRight"></path><path d="M266 26L-39 -279" stroke-width="10" stroke="url(#SvgjsLinearGradient3493)" stroke-linecap="round" class="BottomRight"></path><path d="M284 85L683 484" stroke-width="10" stroke="url(#SvgjsLinearGradient3494)" stroke-linecap="round" class="BottomRight"></path><path d="M824 162L1062 400" stroke-width="10" stroke="url(#SvgjsLinearGradient3494)" stroke-linecap="round" class="BottomRight"></path><path d="M757 70L949 262" stroke-width="10" stroke="url(#SvgjsLinearGradient3493)" stroke-linecap="round" class="BottomRight"></path><path d="M36 50L351 365" stroke-width="8" stroke="url(#SvgjsLinearGradient3494)" stroke-linecap="round" class="BottomRight"></path><path d="M530 91L670 231" stroke-width="8" stroke="url(#SvgjsLinearGradient3495)" stroke-linecap="round" class="TopLeft"></path><path d="M500 240L807 547" stroke-width="6" stroke="url(#SvgjsLinearGradient3493)" stroke-linecap="round" class="BottomRight"></path><path d="M237 548L-153 158" stroke-width="6" stroke="url(#SvgjsLinearGradient3493)" stroke-linecap="round" class="BottomRight"></path><path d="M833 218L503 -112" stroke-width="6" stroke="url(#SvgjsLinearGradient3495)" stroke-linecap="round" class="TopLeft"></path><path d="M1089 548L776 235" stroke-width="10" stroke="url(#SvgjsLinearGradient3492)" stroke-linecap="round" class="TopLeft"></path><path d="M833 553L579 299" stroke-width="10" stroke="url(#SvgjsLinearGradient3492)" stroke-linecap="round" class="TopLeft"></path><path d="M174 388L28 242" stroke-width="6" stroke="url(#SvgjsLinearGradient3494)" stroke-linecap="round" class="BottomRight"></path><path d="M899 523L1077 701" stroke-width="10" stroke="url(#SvgjsLinearGradient3495)" stroke-linecap="round" class="TopLeft"></path><path d="M889 170L507 -212" stroke-width="10" stroke="url(#SvgjsLinearGradient3492)" stroke-linecap="round" class="TopLeft"></path><path d="M824 123L613 -88" stroke-width="8" stroke="url(#SvgjsLinearGradient3493)" stroke-linecap="round" class="BottomRight"></path><path d="M1403 462L1790 849" stroke-width="8" stroke="url(#SvgjsLinearGradient3495)" stroke-linecap="round" class="TopLeft"></path></g><defs><mask id="SvgjsMask3490"><rect width="1440" height="560" fill="#ffffff"></rect></mask><linearGradient x1="15.28%" y1="139.29%" x2="84.72%" y2="-39.29%" gradientUnits="userSpaceOnUse" id="SvgjsLinearGradient3491"><stop stop-color="#0e2a47" offset="0"></stop><stop stop-color="rgba(65, 91, 241, 1)" offset="1"></stop></linearGradient><linearGradient x1="100%" y1="100%" x2="0%" y2="0%" id="SvgjsLinearGradient3492"><stop stop-color="rgba(28, 83, 142, 0)" offset="0"></stop><stop stop-color="#1c538e" offset="1"></stop></linearGradient><linearGradient x1="0%" y1="0%" x2="100%" y2="100%" id="SvgjsLinearGradient3493"><stop stop-color="rgba(139, 148, 238, 0)" offset="0"></stop><stop stop-color="rgba(139, 148, 238, 1)" offset="1"></stop></linearGradient><linearGradient x1="0%" y1="0%" x2="100%" y2="100%" id="SvgjsLinearGradient3494"><stop stop-color="rgba(28, 83, 142, 0)" offset="0"></stop><stop stop-color="#1c538e" offset="1"></stop></linearGradient><linearGradient x1="100%" y1="100%" x2="0%" y2="0%" id="SvgjsLinearGradient3495"><stop stop-color="rgba(139, 148, 238, 0)" offset="0"></stop><stop stop-color="rgba(139, 148, 238, 1)" offset="1"></stop></linearGradient></defs></svg>